<svg width="408" height="120" viewBox="0 0 408 120" fill="none" xmlns="http://www.w3.org/2000/svg">
<path d="M70.38 120H117.3V2.69815L70.38 120Z" fill="#EDEAE2"/>
<path d="M0 0V120L114.663 0H0Z" fill="#EDEAE2"/>
<path d="M161.218 0.49238C161.218 0.49238 161.494 0.3517 161.632 0.3517H167.358C167.358 0.3517 167.634 0.3517 167.772 0.49238C167.91 0.63306 167.91 0.77374 167.91 0.91442V34.4666C167.91 34.4666 167.91 34.7479 167.772 34.8886C167.634 35.0293 167.496 35.0293 167.358 35.0293H161.632C161.632 35.0293 161.356 35.0293 161.218 34.8886C161.08 34.7479 161.011 34.6073 161.011 34.4666V20.7503C161.011 20.7503 160.942 20.4689 160.735 20.4689H149.972C149.972 20.4689 149.696 20.5393 149.696 20.7503V34.4666C149.696 34.4666 149.696 34.7479 149.558 34.8886C149.42 35.0293 149.282 35.0293 149.144 35.0293H143.418C143.418 35.0293 143.142 35.0293 143.004 34.8886C142.866 34.7479 142.866 34.6073 142.866 34.4666V0.91442C142.866 0.91442 142.866 0.63306 143.004 0.49238C143.142 0.3517 143.28 0.3517 143.418 0.3517H149.144C149.144 0.3517 149.42 0.3517 149.558 0.49238C149.696 0.63306 149.696 0.77374 149.696 0.91442V14.279C149.696 14.279 149.765 14.5604 149.972 14.5604H160.735C160.735 14.5604 161.011 14.49 161.011 14.279V0.91442C161.011 0.91442 161.011 0.63306 161.218 0.49238Z" fill="#EDEAE2"/>
<path d="M177.983 34.0445C176.051 32.9894 174.533 31.5123 173.498 29.6131C172.395 27.7139 171.912 25.5334 171.912 23.0012V12.3798C171.912 9.91794 172.464 7.7374 173.498 5.90856C174.533 4.07972 176.051 2.53224 177.983 1.54748C179.915 0.49238 182.122 0 184.675 0C187.228 0 189.504 0.49238 191.436 1.54748C193.368 2.60258 194.886 4.07972 195.921 5.90856C196.955 7.7374 197.507 9.98828 197.507 12.3798V23.0012C197.507 25.4631 196.955 27.7139 195.921 29.6131C194.817 31.5123 193.368 32.9894 191.436 34.0445C189.504 35.0996 187.228 35.592 184.675 35.592C182.122 35.592 179.915 35.0293 177.983 33.9742V34.0445ZM189.021 27.8546C190.125 26.7292 190.677 25.1817 190.677 23.2122V12.3095C190.677 10.4103 190.125 8.86284 189.021 7.66706C187.918 6.47128 186.469 5.90856 184.675 5.90856C182.881 5.90856 181.432 6.47128 180.398 7.66706C179.294 8.86284 178.742 10.4103 178.742 12.3095V23.2122C178.742 25.1114 179.294 26.6589 180.398 27.8546C181.501 28.9801 182.95 29.6131 184.675 29.6131C186.4 29.6131 187.918 29.0504 189.021 27.8546Z" fill="#EDEAE2"/>
<path d="M225.38 0.49238C225.38 0.49238 225.518 0.77374 225.518 0.91442V5.76788C225.518 5.76788 225.518 6.04924 225.38 6.18992C225.242 6.3306 225.104 6.3306 224.966 6.3306H216.273C216.273 6.3306 215.997 6.40094 215.997 6.61196V34.4666C215.997 34.4666 215.997 34.7479 215.859 34.8886C215.721 35.0293 215.583 35.0293 215.445 35.0293H209.719C209.719 35.0293 209.443 35.0293 209.305 34.8886C209.167 34.7479 209.167 34.6073 209.167 34.4666V6.61196C209.167 6.61196 209.098 6.3306 208.891 6.3306H200.405C200.405 6.3306 200.129 6.3306 199.991 6.18992C199.853 6.04924 199.784 5.90856 199.784 5.76788V0.91442C199.784 0.91442 199.784 0.63306 199.991 0.49238C200.129 0.3517 200.267 0.3517 200.405 0.3517H224.966C224.966 0.3517 225.242 0.3517 225.38 0.49238Z" fill="#EDEAE2"/>
<path d="M252.424 6.18992C252.424 6.18992 252.149 6.3306 252.011 6.3306H236.005C236.005 6.3306 235.729 6.40094 235.729 6.61196V14.279C235.729 14.279 235.798 14.5604 236.005 14.5604H246.491C246.491 14.5604 246.767 14.5604 246.905 14.7011C247.043 14.8417 247.112 14.9824 247.112 15.1231V19.9062C247.112 19.9062 247.112 20.1876 246.905 20.3283C246.698 20.4689 246.629 20.4689 246.491 20.4689H236.005C236.005 20.4689 235.729 20.5393 235.729 20.7503V28.7691C235.729 28.7691 235.798 29.0504 236.005 29.0504H252.011C252.011 29.0504 252.286 29.0504 252.424 29.1911C252.562 29.3318 252.562 29.4725 252.562 29.6131V34.3963C252.562 34.3963 252.562 34.6776 252.424 34.8183C252.286 34.959 252.149 34.959 252.011 34.959H229.519C229.519 34.959 229.243 34.959 229.105 34.8183C228.967 34.6776 228.967 34.5369 228.967 34.3963V0.91442C228.967 0.91442 228.967 0.63306 229.105 0.49238C229.243 0.3517 229.381 0.3517 229.519 0.3517H252.011C252.011 0.3517 252.286 0.3517 252.424 0.49238C252.562 0.63306 252.562 0.77374 252.562 0.91442V5.69754C252.562 5.69754 252.562 5.9789 252.424 6.11958V6.18992Z" fill="#EDEAE2"/>
<path d="M256.564 34.8886C256.564 34.8886 256.426 34.6073 256.426 34.4666V0.91442C256.426 0.91442 256.426 0.63306 256.564 0.49238C256.702 0.3517 256.84 0.3517 256.978 0.3517H262.704C262.704 0.3517 262.98 0.3517 263.118 0.49238C263.256 0.63306 263.256 0.77374 263.256 0.91442V28.8394C263.256 28.8394 263.325 29.1208 263.532 29.1208H279.469C279.469 29.1208 279.745 29.1208 279.883 29.2614C280.021 29.4021 280.021 29.5428 280.021 29.6835V34.4666C280.021 34.4666 280.021 34.7479 279.883 34.8886C279.745 35.0293 279.607 35.0293 279.469 35.0293H257.047C257.047 35.0293 256.771 35.0293 256.633 34.8886H256.564Z" fill="#EDEAE2"/>
<path d="M148.248 76.1782C146.316 75.1934 144.867 73.7866 143.832 71.9578C142.797 70.129 142.245 68.0188 142.245 65.6272V54.1618C142.245 51.7702 142.797 49.66 143.832 47.8312C144.867 46.0023 146.316 44.5955 148.248 43.6108C150.179 42.626 152.387 42.1336 154.94 42.1336C157.492 42.1336 159.631 42.626 161.563 43.5404C163.495 44.4549 164.943 45.7913 165.978 47.5498C167.013 49.3083 167.565 51.2778 167.565 53.5991C167.565 53.8804 167.358 54.0914 167.013 54.1618L161.287 54.5135H161.218C161.218 54.5135 160.735 54.3025 160.735 53.9508C160.735 52.1923 160.183 50.7855 159.148 49.7304C158.113 48.6753 156.733 48.1125 155.009 48.1125C153.284 48.1125 151.835 48.6753 150.8 49.7304C149.765 50.7855 149.213 52.1923 149.213 53.9508V65.9086C149.213 67.5967 149.765 69.0035 150.8 70.0586C151.835 71.1137 153.284 71.6764 155.009 71.6764C156.733 71.6764 158.113 71.1137 159.148 70.0586C160.183 69.0035 160.735 67.5967 160.735 65.9086C160.735 65.5569 160.942 65.3458 161.287 65.3458L167.013 65.6272C167.013 65.6272 167.289 65.6272 167.427 65.7679C167.565 65.8382 167.634 65.9789 167.634 66.1196C167.634 68.3705 167.082 70.4103 166.047 72.1688C165.012 73.9273 163.495 75.2638 161.632 76.2485C159.769 77.2333 157.561 77.6553 155.009 77.6553C152.456 77.6553 150.248 77.163 148.317 76.1079L148.248 76.1782Z" fill="#EDEAE2"/>
<path d="M177.017 76.2485C175.085 75.1934 173.567 73.7163 172.533 71.8171C171.429 69.9179 170.946 67.7374 170.946 65.2052V54.5838C170.946 52.1219 171.498 49.9414 172.533 48.1125C173.567 46.2837 175.085 44.7362 177.017 43.7515C178.949 42.6964 181.156 42.204 183.709 42.204C186.262 42.204 188.538 42.6964 190.47 43.7515C192.402 44.8066 193.92 46.2837 194.955 48.1125C195.99 49.9414 196.541 52.1923 196.541 54.5838V65.2052C196.541 67.6671 195.99 69.9179 194.955 71.8171C193.851 73.7163 192.402 75.1934 190.47 76.2485C188.538 77.3036 186.262 77.796 183.709 77.796C181.156 77.796 178.949 77.2333 177.017 76.1782V76.2485ZM188.056 70.0586C189.159 68.9332 189.711 67.3857 189.711 65.4162V54.5135C189.711 52.6143 189.159 51.0668 188.056 49.871C186.952 48.6753 185.503 48.1125 183.709 48.1125C181.915 48.1125 180.467 48.6753 179.432 49.871C178.328 51.0668 177.776 52.6143 177.776 54.5135V65.4162C177.776 67.3154 178.328 68.8628 179.432 70.0586C180.536 71.1841 181.984 71.8171 183.709 71.8171C185.434 71.8171 186.952 71.2544 188.056 70.0586Z" fill="#EDEAE2"/>
<path d="M220.55 42.6964C220.55 42.6964 220.826 42.5557 220.964 42.5557H226.691C226.691 42.5557 226.967 42.5557 227.105 42.6964C227.243 42.837 227.243 42.9777 227.243 43.1184V76.6706C227.243 76.6706 227.243 76.9519 227.105 77.0926C226.967 77.2333 226.829 77.2333 226.691 77.2333H221.171C221.171 77.2333 220.619 77.0926 220.481 76.8113L207.856 55.5686C207.856 55.5686 207.718 55.4279 207.649 55.4279C207.649 55.4279 207.58 55.4982 207.58 55.6389V76.6002C207.58 76.6002 207.58 76.8816 207.58 77.0223C207.442 77.163 207.304 77.163 207.166 77.163H201.44C201.44 77.163 201.164 77.163 201.026 77.0223C200.888 76.8816 200.888 76.7409 200.888 76.6002V43.0481C200.888 43.0481 200.888 42.7667 201.026 42.626C201.164 42.4853 201.302 42.4853 201.44 42.4853H206.959C206.959 42.4853 207.511 42.626 207.649 42.9074L220.206 64.0797C220.206 64.0797 220.344 64.2204 220.412 64.2204C220.412 64.2204 220.481 64.1501 220.481 64.0094V43.1887C220.481 43.1887 220.481 42.9074 220.619 42.7667L220.55 42.6964Z" fill="#EDEAE2"/>
<path d="M237.108 76.3892C235.177 75.5451 233.659 74.3494 232.624 72.7315C231.589 71.1841 231.037 69.3552 231.037 67.245V66.1196C231.037 66.1196 231.037 65.8382 231.175 65.6975C231.313 65.5569 231.451 65.5569 231.589 65.5569H237.108C237.108 65.5569 237.384 65.5569 237.522 65.6975C237.66 65.8382 237.729 65.9789 237.729 66.1196V66.8933C237.729 68.2298 238.35 69.3552 239.523 70.2696C240.696 71.1841 242.352 71.6061 244.421 71.6061C246.146 71.6061 247.388 71.2544 248.285 70.4807C249.113 69.7069 249.527 68.7925 249.527 67.7374C249.527 66.9637 249.251 66.2603 248.768 65.6975C248.285 65.1348 247.526 64.6424 246.629 64.2907C245.732 63.8687 244.284 63.306 242.352 62.6026C240.144 61.8288 238.35 61.0551 236.832 60.2814C235.315 59.5076 234.073 58.3822 233.038 57.0457C232.003 55.6389 231.52 53.9508 231.52 51.9812C231.52 50.0117 232.003 48.2532 233.038 46.7761C234.073 45.2989 235.453 44.1735 237.246 43.3294C239.04 42.5557 241.11 42.1336 243.456 42.1336C245.939 42.1336 248.147 42.5557 250.079 43.4701C252.011 44.3845 253.528 45.5803 254.632 47.1981C255.736 48.8159 256.288 50.6448 256.288 52.755V53.5287C256.288 53.5287 256.288 53.8101 256.15 53.9508C256.012 54.0914 255.874 54.0914 255.736 54.0914H250.148C250.148 54.0914 249.872 54.0914 249.734 53.9508C249.596 53.8101 249.596 53.6694 249.596 53.5287V53.1067C249.596 51.6999 249.044 50.5041 247.94 49.5897C246.836 48.6049 245.318 48.1125 243.318 48.1125C241.8 48.1125 240.627 48.4642 239.73 49.0973C238.902 49.7304 238.419 50.6448 238.419 51.8406C238.419 52.6846 238.695 53.388 239.178 53.9508C239.661 54.5135 240.42 55.0059 241.386 55.4982C242.352 55.9906 243.939 56.5533 246.008 57.3271C248.285 58.1712 250.148 58.9449 251.459 59.578C252.769 60.211 253.942 61.1958 255.046 62.5322C256.081 63.8687 256.633 65.5569 256.633 67.5967C256.633 70.6917 255.529 73.1536 253.252 74.9824C250.976 76.8113 248.009 77.6553 244.146 77.6553C241.524 77.6553 239.247 77.2333 237.315 76.3892H237.108Z" fill="#EDEAE2"/>
<path d="M266.016 76.1782C264.084 75.1934 262.635 73.7866 261.6 71.9578C260.565 70.129 260.014 68.0891 260.014 65.6975V43.0481C260.014 43.0481 260.014 42.7667 260.152 42.626C260.29 42.4853 260.427 42.4853 260.565 42.4853H266.292C266.292 42.4853 266.568 42.4853 266.706 42.626C266.844 42.7667 266.913 42.9074 266.913 43.0481V65.7679C266.913 67.5264 267.465 68.9332 268.499 69.9883C269.534 71.0434 270.914 71.6061 272.639 71.6061C274.364 71.6061 275.744 71.0434 276.778 69.9883C277.813 68.9332 278.365 67.5264 278.365 65.7679V43.0481C278.365 43.0481 278.365 42.7667 278.572 42.626C278.779 42.4853 278.848 42.4853 278.986 42.4853H284.712C284.712 42.4853 284.988 42.4853 285.126 42.626C285.264 42.7667 285.264 42.9074 285.264 43.0481V65.6975C285.264 68.0188 284.712 70.129 283.678 71.9578C282.643 73.7866 281.125 75.1934 279.262 76.1782C277.399 77.163 275.192 77.6553 272.639 77.6553C270.086 77.6553 267.948 77.163 266.016 76.1782Z" fill="#EDEAE2"/>
<path d="M290.025 77.0926C290.025 77.0926 289.887 76.8113 289.887 76.6706V43.1184C289.887 43.1184 289.887 42.837 290.025 42.6964C290.163 42.5557 290.301 42.5557 290.439 42.5557H296.165C296.165 42.5557 296.441 42.5557 296.579 42.6964C296.717 42.837 296.717 42.9777 296.717 43.1184V71.0434C296.717 71.0434 296.786 71.3247 296.993 71.3247H312.93C312.93 71.3247 313.206 71.3247 313.344 71.4654C313.482 71.6061 313.482 71.7468 313.482 71.8875V76.6706C313.482 76.6706 313.482 76.9519 313.344 77.0926C313.206 77.2333 313.068 77.2333 312.93 77.2333H290.508C290.508 77.2333 290.232 77.2333 290.094 77.0926H290.025Z" fill="#EDEAE2"/>
<path d="M336.663 42.6964C336.663 42.6964 336.801 42.9777 336.801 43.1184V47.9719C336.801 47.9719 336.801 48.2532 336.663 48.3939C336.525 48.5346 336.387 48.5346 336.249 48.5346H327.556C327.556 48.5346 327.28 48.6049 327.28 48.8159V76.6706C327.28 76.6706 327.28 76.9519 327.142 77.0926C327.004 77.2333 326.866 77.2333 326.728 77.2333H321.002C321.002 77.2333 320.726 77.2333 320.588 77.0926C320.45 76.9519 320.45 76.8113 320.45 76.6706V48.8159C320.45 48.8159 320.381 48.5346 320.174 48.5346H311.688C311.688 48.5346 311.412 48.5346 311.274 48.3939C311.136 48.2532 311.067 48.1125 311.067 47.9719V43.1184C311.067 43.1184 311.067 42.837 311.274 42.6964C311.412 42.5557 311.55 42.5557 311.688 42.5557H336.249C336.249 42.5557 336.525 42.5557 336.663 42.6964Z" fill="#EDEAE2"/>
<path d="M340.388 77.0926C340.388 77.0926 340.25 76.8113 340.25 76.6706V43.1184C340.25 43.1184 340.25 42.837 340.388 42.6964C340.526 42.5557 340.664 42.5557 340.802 42.5557H346.529C346.529 42.5557 346.805 42.5557 346.943 42.6964C347.081 42.837 347.081 42.9777 347.081 43.1184V76.6706C347.081 76.6706 347.081 76.9519 346.943 77.0926C346.805 77.2333 346.667 77.2333 346.529 77.2333H340.802C340.802 77.2333 340.526 77.2333 340.388 77.0926Z" fill="#EDEAE2"/>
<path d="M371.849 42.6964C371.849 42.6964 372.125 42.5557 372.263 42.5557H377.989C377.989 42.5557 378.265 42.5557 378.403 42.6964C378.541 42.837 378.541 42.9777 378.541 43.1184V76.6706C378.541 76.6706 378.541 76.9519 378.403 77.0926C378.265 77.2333 378.127 77.2333 377.989 77.2333H372.469C372.469 77.2333 371.918 77.0926 371.78 76.8113L359.154 55.5686C359.154 55.5686 359.016 55.4279 358.947 55.4279C358.947 55.4279 358.878 55.4982 358.878 55.6389V76.6002C358.878 76.6002 358.878 76.8816 358.878 77.0223C358.74 77.163 358.602 77.163 358.464 77.163H352.738C352.738 77.163 352.462 77.163 352.324 77.0223C352.186 76.8816 352.186 76.7409 352.186 76.6002V43.0481C352.186 43.0481 352.186 42.7667 352.324 42.626C352.462 42.4853 352.6 42.4853 352.738 42.4853H358.257C358.257 42.4853 358.809 42.626 358.947 42.9074L371.504 64.0797C371.504 64.0797 371.642 64.2204 371.711 64.2204C371.711 64.2204 371.78 64.1501 371.78 64.0094V43.1887C371.78 43.1887 371.78 42.9074 371.918 42.7667L371.849 42.6964Z" fill="#EDEAE2"/>
<path d="M388.82 76.1079C386.889 75.0528 385.44 73.646 384.336 71.8171C383.301 69.9883 382.749 67.8781 382.749 65.4162V54.3025C382.749 51.9109 383.301 49.7304 384.336 47.9015C385.371 46.0727 386.889 44.5955 388.82 43.6108C390.752 42.626 392.96 42.0633 395.444 42.0633C397.927 42.0633 400.066 42.5557 401.998 43.5404C403.929 44.5252 405.378 45.8617 406.413 47.6202C407.448 49.3083 408 51.2075 408 53.3177V53.6694C408 53.6694 408 53.9508 407.862 54.0914C407.724 54.2321 407.586 54.2321 407.448 54.2321H401.722C401.722 54.2321 401.446 54.2321 401.308 54.0914C401.17 53.9508 401.101 53.8101 401.101 53.6694V53.5287C401.101 51.9812 400.549 50.7151 399.514 49.66C398.479 48.6049 397.099 48.1125 395.375 48.1125C393.65 48.1125 392.201 48.6753 391.166 49.8007C390.131 50.9261 389.579 52.3329 389.579 54.1618V65.6975C389.579 67.456 390.131 68.9332 391.304 70.0586C392.408 71.1841 393.857 71.7468 395.651 71.7468C397.444 71.7468 398.686 71.3247 399.721 70.4103C400.756 69.4959 401.239 68.2298 401.239 66.612V64.3611C401.239 64.3611 401.17 64.0797 400.963 64.0797H395.513C395.513 64.0797 395.237 64.0797 395.099 63.939C394.961 63.7984 394.892 63.6577 394.892 63.517V58.9449C394.892 58.9449 394.892 58.6635 395.099 58.5229C395.237 58.3822 395.375 58.3822 395.513 58.3822H407.379C407.379 58.3822 407.655 58.3822 407.793 58.5229C407.931 58.6635 407.931 58.8042 407.931 58.9449V65.4865C407.931 68.0188 407.379 70.1993 406.344 72.0281C405.309 73.857 403.861 75.2638 401.929 76.2485C399.997 77.2333 397.858 77.7257 395.306 77.7257C392.753 77.7257 390.614 77.2333 388.682 76.1782L388.82 76.1079Z" fill="#EDEAE2"/>
<path d="M148.317 118.312C146.385 117.257 144.936 115.85 143.832 114.021C142.797 112.192 142.245 110.082 142.245 107.62V96.5064C142.245 94.1149 142.797 91.9343 143.832 90.1055C144.867 88.2767 146.385 86.7995 148.317 85.8148C150.248 84.83 152.456 84.2673 154.94 84.2673C157.423 84.2673 159.562 84.7597 161.494 85.7444C163.426 86.7292 164.874 88.0657 165.909 89.8242C166.944 91.5123 167.496 93.4115 167.496 95.5217V95.8734C167.496 95.8734 167.496 96.1547 167.358 96.2954C167.22 96.4361 167.082 96.4361 166.944 96.4361H161.218C161.218 96.4361 160.942 96.4361 160.804 96.2954C160.666 96.1547 160.597 96.0141 160.597 95.8734V95.7327C160.597 94.1852 160.045 92.9191 159.01 91.864C157.975 90.8089 156.595 90.3165 154.871 90.3165C153.146 90.3165 151.697 90.8793 150.662 92.0047C149.627 93.1301 149.075 94.5369 149.075 96.3658V107.902C149.075 109.66 149.627 111.137 150.8 112.263C151.904 113.388 153.353 113.951 155.147 113.951C156.94 113.951 158.182 113.529 159.217 112.614C160.252 111.7 160.735 110.434 160.735 108.816V106.565C160.735 106.565 160.666 106.284 160.459 106.284H155.009C155.009 106.284 154.733 106.284 154.595 106.143C154.457 106.002 154.388 105.862 154.388 105.721V101.149C154.388 101.149 154.388 100.868 154.595 100.727C154.733 100.586 154.871 100.586 155.009 100.586H166.875C166.875 100.586 167.151 100.586 167.289 100.727C167.427 100.868 167.427 101.008 167.427 101.149V107.691C167.427 110.223 166.875 112.403 165.84 114.232C164.805 116.061 163.357 117.468 161.425 118.453C159.493 119.437 157.354 119.93 154.802 119.93C152.249 119.93 150.11 119.437 148.179 118.382L148.317 118.312Z" fill="#EDEAE2"/>
<path d="M189.78 119.015L183.709 105.229C183.709 105.229 183.571 105.018 183.433 105.018H178.88C178.88 105.018 178.604 105.088 178.604 105.299V118.875C178.604 118.875 178.604 119.156 178.466 119.297C178.328 119.437 178.19 119.437 178.052 119.437H172.326C172.326 119.437 172.05 119.437 171.912 119.297C171.774 119.156 171.774 119.015 171.774 118.875V85.3224C171.774 85.3224 171.774 85.041 171.912 84.9004C172.05 84.7597 172.188 84.7597 172.326 84.7597H186.262C188.332 84.7597 190.194 85.1817 191.712 86.0258C193.299 86.8699 194.472 88.136 195.369 89.6835C196.197 91.3013 196.679 93.1301 196.679 95.17C196.679 97.4209 196.128 99.32 195.024 100.938C193.92 102.556 192.402 103.681 190.401 104.314C190.263 104.314 190.194 104.525 190.263 104.666L196.886 118.734C196.886 118.734 196.955 118.945 196.955 119.015C196.955 119.297 196.748 119.437 196.404 119.437H190.401C190.401 119.437 189.849 119.297 189.711 119.015H189.78ZM178.604 91.0199V99.5311C178.604 99.5311 178.673 99.8124 178.88 99.8124H185.227C186.607 99.8124 187.711 99.3904 188.538 98.5463C189.366 97.7022 189.849 96.6471 189.849 95.3107C189.849 93.9742 189.435 92.9191 188.538 92.075C187.711 91.231 186.538 90.8089 185.227 90.8089H178.88C178.88 90.8089 178.604 90.8792 178.604 91.0903V91.0199Z" fill="#EDEAE2"/>
<path d="M206.131 118.453C204.2 117.397 202.682 115.92 201.647 114.021C200.543 112.122 200.06 109.941 200.06 107.409V96.7878C200.06 94.3259 200.612 92.1454 201.647 90.3165C202.682 88.4877 204.2 86.9402 206.131 85.9555C208.063 84.9004 210.271 84.408 212.823 84.408C215.376 84.408 217.653 84.9004 219.585 85.9555C221.516 87.0106 223.034 88.4877 224.069 90.3165C225.104 92.1454 225.656 94.3963 225.656 96.7878V107.409C225.656 109.871 225.104 112.122 224.069 114.021C222.965 115.92 221.516 117.397 219.585 118.453C217.653 119.508 215.376 120 212.823 120C210.271 120 208.063 119.437 206.131 118.382V118.453ZM217.17 112.263C218.274 111.137 218.826 109.59 218.826 107.62V96.7175C218.826 94.8183 218.274 93.2708 217.17 92.075C216.066 90.8793 214.617 90.3165 212.823 90.3165C211.03 90.3165 209.581 90.8793 208.546 92.075C207.442 93.2708 206.89 94.8183 206.89 96.7175V107.62C206.89 109.519 207.442 111.067 208.546 112.263C209.65 113.388 211.099 114.021 212.823 114.021C214.548 114.021 216.066 113.458 217.17 112.263Z" fill="#EDEAE2"/>
<path d="M235.729 118.382C233.797 117.397 232.348 115.991 231.313 114.162C230.278 112.333 229.726 110.293 229.726 107.902V85.2521C229.726 85.2521 229.726 84.9707 229.864 84.83C230.002 84.6893 230.14 84.6893 230.278 84.6893H236.005C236.005 84.6893 236.281 84.6893 236.418 84.83C236.556 84.9707 236.625 85.1114 236.625 85.2521V107.972C236.625 109.73 237.177 111.137 238.212 112.192C239.247 113.247 240.627 113.81 242.352 113.81C244.077 113.81 245.456 113.247 246.491 112.192C247.526 111.137 248.078 109.73 248.078 107.972V85.2521C248.078 85.2521 248.078 84.9707 248.285 84.83C248.492 84.6893 248.561 84.6893 248.699 84.6893H254.425C254.425 84.6893 254.701 84.6893 254.839 84.83C254.977 84.9707 254.977 85.1114 254.977 85.2521V107.902C254.977 110.223 254.425 112.333 253.39 114.162C252.356 115.991 250.838 117.397 248.975 118.382C247.112 119.367 244.904 119.859 242.352 119.859C239.799 119.859 237.66 119.367 235.729 118.382Z" fill="#EDEAE2"/>
<path d="M279.331 86.0258C280.987 86.9402 282.229 88.2063 283.126 89.8242C284.023 91.442 284.436 93.3411 284.436 95.4514C284.436 97.5616 283.954 99.3904 283.057 100.938C282.16 102.556 280.849 103.751 279.193 104.666C277.537 105.51 275.606 106.002 273.398 106.002H266.499C266.499 106.002 266.223 106.073 266.223 106.284V118.945C266.223 118.945 266.223 119.226 266.016 119.367C265.878 119.508 265.74 119.508 265.602 119.508H259.876C259.876 119.508 259.6 119.508 259.462 119.367C259.324 119.226 259.324 119.086 259.324 118.945V85.3224C259.324 85.3224 259.324 85.041 259.462 84.9004C259.6 84.7597 259.738 84.7597 259.876 84.7597H273.605C275.744 84.7597 277.606 85.1817 279.262 86.0961L279.331 86.0258ZM276.227 99.0387C277.123 98.1946 277.606 96.9988 277.606 95.592C277.606 94.1852 277.123 92.9895 276.227 92.075C275.33 91.1606 274.088 90.7386 272.639 90.7386H266.43C266.43 90.7386 266.154 90.8089 266.154 91.0199V100.164C266.154 100.164 266.223 100.445 266.43 100.445H272.639C274.157 100.445 275.33 100.023 276.227 99.109V99.0387Z" fill="#EDEAE2"/>
</svg>
